<?xml version="1.0" standalone="no"?>
<!DOCTYPE svg PUBLIC "-//W3C//DTD SVG 20010904//EN"
 "http://www.w3.org/TR/2001/REC-SVG-20010904/DTD/svg10.dtd">
<svg version="1.0" xmlns="http://www.w3.org/2000/svg"
 width="700.000000pt" height="700.000000pt" viewBox="0 0 700.000000 700.000000"
 preserveAspectRatio="xMidYMid meet">
<metadata>
Created by potrace 1.14, written by Peter Selinger 2001-2017
</metadata>
<g transform="translate(0.000000,700.000000) scale(0.100000,-0.100000)"
fill="#000000" stroke="none">
<path d="M2198 6115 c-1 -1 -25 -5 -53 -9 -166 -19 -329 -106 -450 -238 -103
-114 -174 -262 -193 -404 -6 -40 -10 -858 -10 -1969 -1 -2072 -3 -1968 57
-2119 91 -228 277 -395 521 -468 87 -26 252 -31 345 -11 275 58 498 264 581
538 l28 90 0 562 c1 310 2 563 3 563 2 0 272 -359 926 -1230 109 -146 215
-282 235 -303 56 -58 130 -112 207 -150 131 -66 205 -82 365 -81 416 3 747
352 739 779 -3 132 -34 250 -97 365 -14 25 -280 384 -591 798 -605 805 -626
833 -671 901 -48 71 -37 147 26 194 48 36 144 24 176 -21 7 -11 33 -43 58 -72
25 -29 50 -59 56 -68 22 -31 52 -3 188 178 562 747 738 983 764 1031 105 186
126 420 56 633 -83 254 -299 444 -566 499 -61 13 -225 15 -288 4 -60 -10 -150
-42 -210 -74 -137 -73 -195 -129 -356 -343 -60 -80 -111 -147 -114 -150 -3 -3
-17 -21 -30 -40 -13 -19 -27 -37 -30 -40 -3 -3 -52 -68 -110 -145 -58 -77
-107 -142 -110 -145 -3 -3 -68 -88 -145 -190 -367 -487 -428 -565 -439 -572
-6 -4 -18 -3 -26 2 -12 7 -14 93 -16 522 -2 487 -3 517 -23 592 -90 338 -377
575 -715 590 -46 3 -86 3 -88 1z"/>
</g>
</svg>
